<svg width="135" height="39" viewBox="0 0 135 39" fill="none" xmlns="http://www.w3.org/2000/svg">
<path d="M13.0886 5.65062C14.964 5.65062 16.7352 6.01528 18.4022 6.7446C20.0692 7.44787 21.5148 8.42463 22.7391 9.67489C23.9893 10.8991 24.9661 12.3447 25.6693 14.0117C26.3987 15.6787 26.7633 17.4499 26.7633 19.3253C26.7633 21.2007 26.3987 22.9719 25.6693 24.6389C24.9661 26.3059 23.9893 27.7645 22.7391 29.0148C21.5148 30.239 20.0692 31.2158 18.4022 31.9451C16.7352 32.6484 14.964 33 13.0886 33H10.8225L8.24388 28.2334H13.0886C14.2087 28.2334 15.2636 28.012 16.2533 27.5692C17.2692 27.1264 18.1418 26.5143 18.8711 25.7329C19.6264 24.9254 20.2125 23.9747 20.6292 22.8807C21.072 21.7868 21.2934 20.6016 21.2934 19.3253C21.2934 18.0751 21.072 16.9029 20.6292 15.809C20.2125 14.715 19.6264 13.7773 18.8711 12.9959C18.1418 12.1884 17.2692 11.5633 16.2533 11.1205C15.2636 10.6517 14.2087 10.4172 13.0886 10.4172H6.83734V33H1.36747V5.65062H13.0886ZM38.0678 13.1522C39.4483 13.1522 40.7507 13.4257 41.9749 13.9726C43.1991 14.4936 44.267 15.2099 45.1787 16.1215C46.0903 17.0332 46.8066 18.1011 47.3275 19.3253C47.8745 20.5495 48.148 21.8649 48.148 23.2714C48.148 24.0268 48.0699 24.7561 47.9136 25.4594L47.8745 25.5375H37.9506L35.4501 21.5523H42.8735C42.5088 20.4584 41.8967 19.5597 41.0372 18.8565C40.2037 18.1532 39.2139 17.8016 38.0678 17.8016C37.3646 17.8016 36.7004 17.9448 36.0752 18.2313C35.4501 18.5179 34.9031 18.9086 34.4343 19.4035C33.9915 19.8723 33.6398 20.4453 33.3794 21.1226C33.1189 21.7737 32.9887 22.49 32.9887 23.2714C32.9887 23.8705 33.1059 24.4956 33.3403 25.1468C33.5747 25.772 33.9133 26.345 34.3561 26.8659C34.7989 27.3869 35.3329 27.8297 35.958 28.1943C36.5831 28.5329 37.2864 28.7022 38.0678 28.7022C38.7711 28.7022 39.4092 28.6111 39.9823 28.4287C40.5814 28.2204 41.1414 27.7776 41.6623 27.1003L41.7014 27.0613L41.7795 27.1003L46.3117 29.0929L46.2336 29.1711C45.2959 30.4734 44.0977 31.4893 42.6391 32.2186C41.2065 32.9479 39.6827 33.3126 38.0678 33.3126C36.6613 33.3126 35.3329 33.0521 34.0826 32.5312C32.8584 32.0102 31.7905 31.2939 30.8788 30.3823C29.9672 29.4706 29.2379 28.4027 28.6909 27.1785C28.17 25.9543 27.9095 24.6519 27.9095 23.2714C27.9095 21.8649 28.17 20.5495 28.6909 19.3253C29.2379 18.1011 29.9672 17.0332 30.8788 16.1215C31.7905 15.2099 32.8584 14.4936 34.0826 13.9726C35.3329 13.4257 36.6613 13.1522 38.0678 13.1522ZM52.8319 13.5038L57.872 27.6473L54.4338 31.2028L47.2448 13.4647H52.8319V13.5038ZM63.5372 13.4647H69.0853L61.0758 33H56.5436L58.1455 28.5069L63.5372 13.4647ZM77.8633 13.1522C79.2438 13.1522 80.5461 13.4257 81.7704 13.9726C82.9946 14.4936 84.0625 15.2099 84.9741 16.1215C85.8858 17.0332 86.6021 18.1011 87.123 19.3253C87.67 20.5495 87.9435 21.8649 87.9435 23.2714C87.9435 24.0268 87.8654 24.7561 87.7091 25.4594L87.67 25.5375H77.7461L75.2456 21.5523H82.669C82.3043 20.4584 81.6922 19.5597 80.8327 18.8565C79.9992 18.1532 79.0094 17.8016 77.8633 17.8016C77.16 17.8016 76.4958 17.9448 75.8707 18.2313C75.2456 18.5179 74.6986 18.9086 74.2297 19.4035C73.7869 19.8723 73.4353 20.4453 73.1748 21.1226C72.9144 21.7737 72.7841 22.49 72.7841 23.2714C72.7841 23.8705 72.9013 24.4956 73.1358 25.1468C73.3702 25.772 73.7088 26.345 74.1516 26.8659C74.5944 27.3869 75.1284 27.8297 75.7535 28.1943C76.3786 28.5329 77.0819 28.7022 77.8633 28.7022C78.5666 28.7022 79.2047 28.6111 79.7778 28.4287C80.3768 28.2204 80.9369 27.7776 81.4578 27.1003L81.4969 27.0613L81.575 27.1003L86.1072 29.0929L86.029 29.1711C85.0914 30.4734 83.8932 31.4893 82.4346 32.2186C81.002 32.9479 79.4782 33.3126 77.8633 33.3126C76.4568 33.3126 75.1284 33.0521 73.8781 32.5312C72.6539 32.0102 71.586 31.2939 70.6743 30.3823C69.7627 29.4706 69.0334 28.4027 68.4864 27.1785C67.9654 25.9543 67.705 24.6519 67.705 23.2714C67.705 21.8649 67.9654 20.5495 68.4864 19.3253C69.0334 18.1011 69.7627 17.0332 70.6743 16.1215C71.586 15.2099 72.6539 14.4936 73.8781 13.9726C75.1284 13.4257 76.4568 13.1522 77.8633 13.1522ZM89.8821 13.4647H95.1957V33H89.8821V13.4647ZM107.933 15.7308C108.584 16.5383 109.053 17.5541 109.339 18.7783C109.626 20.0025 109.769 21.5133 109.769 23.3105V33H104.455V23.3105C104.455 22.5812 104.429 21.8909 104.377 21.2398C104.351 20.5625 104.221 19.9765 103.987 19.4816C103.752 18.9607 103.374 18.5569 102.853 18.2704C102.333 17.9839 101.59 17.8406 100.626 17.8406C99.7148 17.8406 98.8683 18.036 98.0869 18.4267V18.4658L98.0478 18.4267L96.1334 15.0276L96.1724 14.9885C97.5269 13.7643 99.2199 13.1522 101.252 13.1522C104.377 13.1522 106.604 14.0117 107.933 15.7308ZM132.916 5.65062V33H127.72L127.759 23.1933C127.759 22.464 127.603 21.7737 127.29 21.1226C127.004 20.4714 126.613 19.9114 126.118 19.4425C125.649 18.9476 125.076 18.5699 124.399 18.3095C123.748 18.023 123.045 17.8797 122.289 17.8797C121.534 17.8797 120.831 18.023 120.179 18.3095C119.528 18.5699 118.955 18.9476 118.46 19.4425C117.991 19.9374 117.614 20.5105 117.327 21.1616C117.041 21.8128 116.898 22.5161 116.898 23.2714C116.898 24.0268 117.041 24.7301 117.327 25.3812C117.614 26.0324 117.991 26.6055 118.46 27.1003C118.955 27.5692 119.528 27.9469 120.179 28.2334C120.831 28.5199 121.534 28.6632 122.289 28.6632C122.654 28.6632 123.019 28.6371 123.383 28.585C123.748 28.5329 124.086 28.4287 124.399 28.2725H124.438H124.477L126.392 31.7888L126.353 31.8279C125.076 32.8177 123.513 33.3126 121.664 33.3126C120.258 33.3126 118.942 33.0521 117.718 32.5312C116.494 32.0102 115.426 31.2939 114.514 30.3823C113.603 29.4706 112.873 28.4027 112.326 27.1785C111.805 25.9543 111.545 24.6519 111.545 23.2714C111.545 21.8909 111.805 20.5886 112.326 19.3644C112.873 18.1402 113.603 17.0722 114.514 16.1606C115.426 15.249 116.494 14.5327 117.718 14.0117C118.942 13.4908 120.258 13.2303 121.664 13.2303C124.321 13.2303 126.353 14.2201 127.759 16.1997V5.65062H132.916Z" fill="white"/>
</svg>
