<svg width="21" height="23" viewBox="0 0 21 23" fill="none" xmlns="http://www.w3.org/2000/svg">
<path d="M17.6869 5.06102C17.535 4.98247 17.3872 4.89636 17.2439 4.80302C16.8276 4.52775 16.4458 4.20342 16.1069 3.83702C15.2579 2.86602 14.9409 1.88102 14.8249 1.19202H14.8289C14.7319 0.619023 14.7719 0.249023 14.7789 0.249023H10.9139V15.192C10.9139 15.392 10.9139 15.591 10.9059 15.787C10.9059 15.811 10.9029 15.833 10.9019 15.86C10.9019 15.87 10.9019 15.882 10.8989 15.893V15.902C10.8583 16.438 10.6866 16.9559 10.3989 17.4099C10.1112 17.864 9.71627 18.2404 9.24892 18.506C8.76135 18.7834 8.20987 18.9289 7.64892 18.928C5.84892 18.928 4.38892 17.46 4.38892 15.647C4.38892 13.833 5.84892 12.365 7.64892 12.365C7.98992 12.365 8.32892 12.419 8.65292 12.525L8.65792 8.58902C7.67393 8.46207 6.67431 8.54049 5.72216 8.81932C4.77 9.09815 3.88599 9.57134 3.12592 10.209C2.45977 10.7876 1.8997 11.4779 1.47092 12.249C1.30792 12.53 0.691919 13.661 0.617919 15.495C0.570919 16.535 0.883918 17.615 1.03292 18.06V18.07C1.12592 18.332 1.48992 19.228 2.08192 19.983C2.55931 20.589 3.12337 21.1214 3.75592 21.563V21.553L3.76492 21.563C5.63492 22.833 7.70992 22.75 7.70992 22.75C8.06892 22.735 9.27192 22.75 10.6379 22.103C12.1529 21.385 13.0149 20.316 13.0149 20.316C13.566 19.6771 14.0043 18.9491 14.3109 18.163C14.6609 17.243 14.7769 16.141 14.7769 15.701V7.77202C14.8239 7.80002 15.4489 8.21302 15.4489 8.21302C15.4489 8.21302 16.3489 8.79002 17.7519 9.16502C18.7579 9.43202 20.1149 9.48902 20.1149 9.48902V5.65202C19.6399 5.70402 18.6749 5.55402 17.6859 5.06202L17.6869 5.06102Z" fill="white"/>
</svg>
