<svg width="25" height="25" viewBox="0 0 25 25" fill="none" xmlns="http://www.w3.org/2000/svg">
<circle cx="12.5" cy="12.5" r="12.5" fill="#232323"/>
<path d="M8.572 17.2722C8.29631 17.0545 8.00861 16.8498 7.74714 16.617C6.95102 15.9067 6.32821 15.0557 5.79982 14.1351C5.58357 13.7583 5.39692 13.365 5.19048 12.9829C5.16484 12.9415 5.15172 12.8937 5.15272 12.8451C5.15372 12.7964 5.16879 12.7492 5.19611 12.7089C5.41208 12.3338 5.71509 12.0382 6.04117 11.7616C6.77132 11.1416 7.5827 10.6411 8.41901 10.1803C9.58349 9.54305 10.7935 8.99283 12.0392 8.53416C13.2711 8.07631 14.5213 7.67904 15.8362 7.53993C16.2476 7.4961 16.6573 7.48436 17.066 7.56963C17.1971 7.5969 17.2677 7.65918 17.3173 7.78964C17.6902 8.77256 17.991 9.77439 18.1333 10.8187C18.2326 11.5451 18.2585 12.2718 18.1332 12.9982C18.124 13.0503 18.1122 13.102 18.0928 13.1987C17.4946 11.8008 16.5264 10.8219 15.1416 10.2909C13.7568 9.75982 12.3725 9.81467 11.0359 10.4655C9.78337 11.0754 8.91762 12.0555 8.44925 13.3687C7.98089 14.6819 8.05296 15.97 8.61247 17.2427L8.572 17.2722Z" fill="white"/>
<path d="M15.2306 19.5674C12.7723 20.636 9.89679 19.4878 8.81488 17.0059C8.55832 16.4183 8.42039 15.7858 8.40903 15.1447C8.39767 14.5036 8.5131 13.8665 8.74868 13.2702C8.98426 12.6738 9.33535 12.1299 9.78179 11.6696C10.2282 11.2094 10.7612 10.8419 11.3501 10.5882C13.8136 9.5209 16.6836 10.6664 17.7657 13.1486C18.0222 13.7363 18.1601 14.3689 18.1715 15.0101C18.1829 15.6513 18.0675 16.2883 17.8319 16.8848C17.5963 17.4812 17.2453 18.0252 16.7988 18.4856C16.3524 18.946 15.8195 19.3136 15.2306 19.5674ZM14.7597 18.5105C16.6368 17.7149 17.5154 15.5239 16.7167 13.638C16.3307 12.7304 15.6001 12.0133 14.6855 11.6443C13.771 11.2753 12.7473 11.2845 11.8395 11.67C9.95715 12.4706 9.07669 14.6518 9.87397 16.5392C10.0649 16.9899 10.3428 17.3985 10.6918 17.7417C11.0408 18.0848 11.4541 18.3558 11.9079 18.539C12.3618 18.7223 12.8474 18.8142 13.3368 18.8095C13.8262 18.8048 14.31 18.7037 14.7603 18.5118L14.7597 18.5105Z" fill="white"/>
<path d="M17.1742 7.39724C16.8282 7.375 16.4813 7.33273 16.1418 7.33549C15.2538 7.34299 14.4031 7.52239 13.5649 7.74822C12.2025 8.11975 10.8827 8.61842 9.61822 9.2394C8.35136 9.85775 7.1274 10.553 6.04834 11.5001C5.68234 11.8212 5.34738 12.178 5.08528 12.614C5.07573 12.6255 5.06466 12.6352 5.05238 12.643C4.81695 12.2453 4.77931 11.8519 4.93332 11.461C5.12735 10.9687 5.45081 10.5988 5.80226 10.2576C6.46885 9.60988 7.23158 9.10544 8.02062 8.64846C8.84495 8.17092 9.70236 7.75724 10.5876 7.40994C11.8927 6.89777 13.2209 6.46086 14.646 6.34885C15.0689 6.31528 15.5062 6.36397 15.9371 6.38529C16.0411 6.39051 16.1492 6.43279 16.2536 6.46424C16.6979 6.60294 17.03 6.88717 17.1742 7.39724Z" fill="white"/>
<path d="M12.5144 13.2703C12.8748 13.1164 13.2726 13.0728 13.6577 13.145C14.0428 13.2172 14.3978 13.402 14.6779 13.6759C14.958 13.9499 15.1506 14.3008 15.2313 14.6842C15.312 15.0676 15.2772 15.4663 15.1314 15.8299C14.9855 16.1935 14.7351 16.5058 14.4118 16.7271C14.0885 16.9484 13.7068 17.0689 13.3151 17.0734C12.9233 17.0778 12.539 16.966 12.2107 16.7521C11.8825 16.5381 11.6251 16.2317 11.471 15.8714C11.3677 15.6322 11.3128 15.375 11.3094 15.1145C11.306 14.854 11.3542 14.5954 11.4512 14.3536C11.5481 14.1118 11.692 13.8916 11.8745 13.7057C12.057 13.5197 12.2745 13.3718 12.5144 13.2703ZM13.7462 16.1226C13.8857 16.0638 14.0121 15.9779 14.1182 15.8698C14.2242 15.7617 14.3077 15.6336 14.3638 15.4929C14.4199 15.3523 14.4474 15.2019 14.4449 15.0505C14.4423 14.8991 14.4097 14.7497 14.349 14.6111C14.2264 14.331 13.9988 14.1102 13.7151 13.9961C13.4315 13.8821 13.1144 13.8839 12.832 14.0012C12.2489 14.2469 11.9718 14.946 12.2259 15.5295C12.3503 15.8085 12.5796 16.0272 12.8642 16.1382C13.1488 16.2493 13.4657 16.2437 13.7462 16.1226Z" fill="white"/>
<path d="M12.835 14.6267C12.9557 14.5041 13.1199 14.4343 13.2919 14.4322C13.4638 14.4302 13.6296 14.4961 13.7532 14.6158C13.8773 14.7323 13.9514 14.8924 13.9599 15.0624C13.9685 15.2324 13.9108 15.3992 13.7991 15.5276C13.6873 15.656 13.5302 15.7362 13.3606 15.7512C13.191 15.7662 13.0222 15.715 12.8896 15.6082C12.7561 15.5072 12.6676 15.3579 12.6431 15.1923C12.6187 15.0268 12.6602 14.8582 12.7587 14.7229C12.7578 14.7534 12.7549 14.784 12.7559 14.8145C12.759 14.9325 12.8094 15.0223 12.9243 15.06C12.9729 15.0783 13.0262 15.0797 13.0757 15.064C13.1252 15.0484 13.168 15.0166 13.1973 14.9737C13.231 14.934 13.2499 14.8839 13.2511 14.8319C13.2522 14.7798 13.2355 14.7289 13.2037 14.6878C13.1747 14.642 13.1308 14.6078 13.0794 14.5908C13.028 14.5739 12.9723 14.5753 12.9218 14.5948C12.8932 14.6036 12.8644 14.616 12.835 14.6267ZM13.575 15.3963C13.5554 15.351 13.5189 15.3151 13.4733 15.2961C13.4277 15.2772 13.3765 15.2768 13.3306 15.2949C13.2847 15.3131 13.2476 15.3484 13.2273 15.3934C13.2069 15.4384 13.2049 15.4895 13.2216 15.536C13.2302 15.56 13.2436 15.582 13.2608 15.6007C13.2781 15.6194 13.299 15.6344 13.3222 15.6449C13.3454 15.6554 13.3704 15.6611 13.3959 15.6617C13.4214 15.6623 13.4467 15.6578 13.4703 15.6485C13.494 15.6391 13.5156 15.6251 13.5337 15.6072C13.5519 15.5894 13.5663 15.5681 13.576 15.5445C13.5858 15.521 13.5907 15.4958 13.5905 15.4703C13.5904 15.4449 13.5851 15.4197 13.575 15.3963Z" fill="white"/>
<circle cx="13.3348" cy="15.0277" r="0.765952" fill="white"/>
</svg>
